<mxfile host="app.diagrams.net" modified="2022-04-20T12:43:29.263Z" agent="5.0 (Windows NT 10.0; Win64; x64) AppleWebKit/537.36 (KHTML, like Gecko) Chrome/92.0.4515.107 Safari/537.36" etag="wfI-6tErDF547EvKzVat" version="16.0.0" type="github">
  <diagram id="lnOLNIAgYYnG8vhcsxSH" name="Page-1">
    <mxGraphModel dx="1248" dy="626" grid="1" gridSize="10" guides="1" tooltips="1" connect="1" arrows="1" fold="1" page="1" pageScale="1" pageWidth="827" pageHeight="1169" math="0" shadow="0">
      <root>
        <mxCell id="0" />
        <mxCell id="1" parent="0" />
        <mxCell id="kjA-p8as145tHWLBYu3--1" value="" style="rounded=1;whiteSpace=wrap;html=1;arcSize=3;strokeWidth=1;glass=0;shadow=0;sketch=1;fillColor=#f9f7ed;strokeColor=#36393d;" parent="1" vertex="1">
          <mxGeometry x="180" y="191" width="350" height="109" as="geometry" />
        </mxCell>
        <mxCell id="kjA-p8as145tHWLBYu3--2" value="博主微信：wucode555" style="text;html=1;strokeColor=none;fillColor=none;align=center;verticalAlign=middle;whiteSpace=wrap;rounded=0;shadow=0;glass=0;sketch=1;" parent="1" vertex="1">
          <mxGeometry x="194" y="200" width="130" height="20" as="geometry" />
        </mxCell>
        <mxCell id="kjA-p8as145tHWLBYu3--3" value="备注「&lt;font color=&quot;#ff0000&quot;&gt;&lt;b&gt;加群&lt;/b&gt;&lt;/font&gt;」，带你进入高手如云交流社群" style="text;html=1;strokeColor=none;fillColor=none;align=center;verticalAlign=middle;whiteSpace=wrap;rounded=0;shadow=0;glass=0;sketch=1;" parent="1" vertex="1">
          <mxGeometry x="270" y="235.5" width="250" height="20" as="geometry" />
        </mxCell>
        <mxCell id="kjA-p8as145tHWLBYu3--4" value="备注「&lt;font color=&quot;#ff0000&quot;&gt;&lt;b&gt;网络&lt;/b&gt;&lt;/font&gt;」，送你一份精选网络学习宝典" style="text;html=1;strokeColor=none;fillColor=none;align=center;verticalAlign=middle;whiteSpace=wrap;rounded=0;shadow=0;glass=0;sketch=1;" parent="1" vertex="1">
          <mxGeometry x="270" y="263" width="250" height="20" as="geometry" />
        </mxCell>
        <mxCell id="kjA-p8as145tHWLBYu3--5" value="公众号：5分钟学网络(id: learnnet5)" style="text;html=1;strokeColor=none;fillColor=none;align=center;verticalAlign=middle;whiteSpace=wrap;rounded=0;shadow=0;glass=0;sketch=1;" parent="1" vertex="1">
          <mxGeometry x="326" y="201" width="200" height="20" as="geometry" />
        </mxCell>
        <mxCell id="JSZOOOIl80Fk8ybpUCle-1" value="" style="shape=image;verticalLabelPosition=bottom;labelBackgroundColor=#ffffff;verticalAlign=top;aspect=fixed;imageAspect=0;image=data:image/jpeg,/9j/4AAQSkZJRgABAQAAAQABAAD/2wBDAAMCAgMCAgMDAwMEAwMEBQgFBQQEBQoHBwYIDAoMDAsKCwsNDhIQDQ4RDgsLEBYQERMUFRUVDA8XGBYUGBIUFRT/2wBDAQMEBAUEBQkFBQkUDQsNFBQUFBQUFBQUFBQUFBQUFBQUFBQUFBQUFBQUFBQUFBQUFBQUFBQUFBQUFBQUFBQUFBT/wAARCAECAQIDASIAAhEBAxEB/8QAHwAAAQUBAQEBAQEAAAAAAAAAAAECAwQFBgcICQoL/8QAtRAAAgEDAwIEAwUFBAQAAAF9AQIDAAQRBRIhMUEGE1FhByJxFDKBkaEII0KxwRVS0fAkM2JyggkKFhcYGRolJicoKSo0NTY3ODk6Q0RFRkdISUpTVFVWV1hZWmNkZWZnaGlqc3R1dnd4eXqDhIWGh4iJipKTlJWWl5iZmqKjpKWmp6ipqrKztLW2t7i5usLDxMXGx8jJytLT1NXW19jZ2uHi4+Tl5ufo6erx8vP09fb3+Pn6/8QAHwEAAwEBAQEBAQEBAQAAAAAAAAECAwQFBgcICQoL/8QAtREAAgECBAQDBAcFBAQAAQJ3AAECAxEEBSExBhJBUQdhcRMiMoEIFEKRobHBCSMzUvAVYnLRChYkNOEl8RcYGRomJygpKjU2Nzg5OkNERUZHSElKU1RVVldYWVpjZGVmZ2hpanN0dXZ3eHl6goOEhYaHiImKkpOUlZaXmJmaoqOkpaanqKmqsrO0tba3uLm6wsPExcbHyMnK0tPU1dbX2Nna4uPk5ebn6Onq8vP09fb3+Pn6/9oADAMBAAIRAxEAPwD9U6KKKACikzRmgBaKTNGaAFopM0ZFAC0UmaM0ALRSZHrRQAtFFFABRSZpaACikzRmgBaKTNLQAUUUlAC0UmR60UALRSUZHrQAtFJmjNAC0UmaM0ALRRRQAUUUUAFIeRS0h6UAfkB+3p+3n8dfgr+1j468G+DPHP8AY3hvTfsP2Wy/siwn8vzLC3lf55YGc5eRzyxxnA4AFeAf8PRv2nf+imf+UDS//kal/wCCo/8AyfZ8Tf8AuGf+mu0r90/il8U/DHwW8Can4y8Zan/Y/hvTfK+1Xv2eWfy/MlSJPkiVnOXkQcKcZyeATQB+Ff8Aw9G/ad/6KZ/5QNL/APkaj/h6N+07/wBFM/8AKBpf/wAjV+qx/wCCov7MYOD8Szn/ALAGqf8AyNSf8PRf2Y/+imH/AMEGqf8AyNQB+VX/AA9G/ad/6KZ/5QNL/wDkavv/AP4JTftRfE79pT/haP8AwsfxN/wkX9i/2X9g/wBAtbXyfO+1+Z/qIk3Z8qP72cbeMZOfVv8AgqP/AMmJ/E3/ALhn/p0tK+VP+CGXH/C7P+4J/wC39AHKft6ft5/HX4K/tY+OvBvgzxz/AGN4b037D9lsv7IsJ/L8ywt5X+eWBnOXkc8scZwOABXgH/D0b9p3/opn/lA0v/5Gr3/9vT9gz46/Gr9rHx14y8GeBv7Z8N6l9h+y3v8Aa9hB5nl2FvE/ySzq4w8bjlRnGRwQaP2C/wBgz46/BX9rHwL4y8Z+Bv7G8N6b9u+1Xv8Aa9hP5fmWFxEnyRTs5y8iDhTjOTwCaAPAP+Hov7Th4PxM4/7AGl//ACNX6/8A7BXxR8T/ABo/ZO8DeMvGWp/2z4k1P7d9rvfs8UHmeXf3ESfJEqoMJGg4UZxk8kmvf+q1+AX/AAVH/wCT7Pib/wBwz/012lAH7/Uh5FfysV+qf/BDI4HxsJ6f8ST/ANv6AOU/b0/bz+OvwV/ax8deDfBnjn+xvDem/Yfstl/ZFhP5fmWFvK/zywM5y8jnljjOBwAK/YCvAPij+3p8Cvgv461Pwb4y8cHRvEmm+V9qsv7Iv5/L8yJJU+eKBkOUkQ8McZwcEEV+av7Lf7LnxO/Yv+O3hn4yfGTwz/wh3w38Nfav7V1r7fa332b7Ray2sP7m1llmfdNcRJ8iHG7JwoJAB9U/8FW/2o/id+zWfhd/wrjxN/wjv9tf2p9v/wBAtbrzvJ+yeV/r4n2482T7uM7uc4GPgD/h6N+07/0Uz/ygaX/8jV9Vftz/APGyYeCf+Gcv+Lif8IX9u/t7/mF/Y/tf2f7N/wAf3k+Zv+yXH+r3bdnzY3Ln7V/YK+F3if4L/sneBvBvjLTP7G8SaZ9u+12X2iKfy/Mv7iVPniZkOUkQ8McZweQRQB+f/wCwX+3n8dfjV+1j4F8G+M/HP9s+G9S+3farL+yLCDzPLsLiVPnigVxh40PDDOMHgkV+v44FfAP7Un7Ufwx/bQ+BPib4N/BvxN/wmPxI8S/Zf7K0X+z7qx+0/Z7qK6m/fXUUUKbYbeV/ncZ24GWIB/P/AP4dc/tO/wDRM/8Ayv6X/wDJNAH7/wBfP/7evxR8T/Bf9k7xz4y8G6n/AGN4k0z7D9kvfs8U/l+Zf28T/JKrIcpI45U4zkcgGvyA/wCHXP7Tv/RM/wDyv6X/APJNfqr/AMFR/wDkxP4m/wDcM/8ATpaUAflV/wAPRf2nMY/4WZx0x/YGl/8AyNX6/wD7BXxR8T/Gj9k7wN4y8Zan/bPiTU/t32u9+zxQeZ5d/cRJ8kSqgwkaDhRnGTySa/nXAya/X/8AYK/bz+BXwW/ZO8C+DfGfjg6N4k037d9qsv7Iv5/L8y/uJU+eKBkOUkQ8McZweQRQB9U/t6/FHxP8F/2TvHPjLwbqf9jeJNM+w/ZL37PFP5fmX9vE/wAkqshykjjlTjORyAa/ID/h6L+04OB8TOP+wBpf/wAjV+qv/BUf/kxP4m/9wz/06WlfKn/BDI4/4XYT0H9if+39AHyr/wAPRv2nf+imf+UDS/8A5Go/4ejftO/9FM/8oGl//I1fsB8Uf29PgV8F/HWp+DfGXjg6N4k03yvtVl/ZF/P5fmRJKnzxQMhykiHhjjODggiuU/4ei/sx/wDRTD/4INU/+RqAPyq/4ejftO/9FM/8oGl//I1H/D0b9p3/AKKZ/wCUDS//AJGr9qfgb+1J8Mf2k/7bHw48Tf8ACRf2L5H2/wD0C6tfJ87zPK/18Sbs+VJ93ONvOMjP4r/8FR/+T7Pib/3DP/TXaUAfv9RRRQAUUUUAFIelLSHpQB+AX/BUf/k+z4m/9wz/ANNdpX6qf8FR/wDkxT4mf9wz/wBOdpX5V/8ABUf/AJPs+Jv/AHDP/TXaV+qn/BUf/kxP4m/9wz/06WlAH4A5ozRRQB+/3/BUf/kxP4m/9wz/ANOlpXyp/wAEMv8Amtn/AHBP/b+vqv8A4Kj/APJifxN/7hn/AKdLSvlT/ghl/wA1s/7gn/t/QB6r+1F/wVa/4Zr+Ovib4cf8Ku/4SP8AsX7L/wATL/hIPsvnedaxT/6r7K+3Hm7fvHO3PGcD7/4r8Av+Co//ACfZ8Tf+4Z/6a7Sk/wCHo37Tv/RTP/KBpf8A8jUAfqp+3N+3N/wxd/whP/FE/wDCY/8ACS/bf+Yt9h+zfZ/s/wD0wl37vtHtjb3zx+K/7Unxz/4aT+Ovib4j/wBif8I7/bX2X/iW/a/tXk+TaxQf63Ym7PlbvujG7HOMn7+/YXP/AA8mPjY/tG/8XEPgv7D/AGD/AMwv7H9r+0faf+PHyPM3/ZLf/Wbtuz5cbmz8V/t6/C7wx8F/2sfHPg3wbpn9j+G9M+w/ZLL7RLP5fmWFvK/zysznLyOeWOM4HAAoA8AxX6p/8EMv+a2f9wT/ANv66z9vX9gz4FfBb9k7x14y8GeBzo3iTTfsP2W9/te/n8vzL+3if5JZ2Q5SRxypxnI5ANcn/wAEM+f+F2Z/6gn/ALf0Aeq/tRf8Epv+Gk/jr4m+I/8AwtH/AIRz+2vs3/Es/wCEf+1eT5NrFB/rftSbs+Vu+6Mbsc4yfqr9qP4GD9pP4FeJvhz/AG2PDv8AbX2X/iZ/ZPtXk+TdRT/6rem7PlbfvDG7POMH81f29P28/jr8Ff2sfHXg3wZ45/sbw3pv2H7LZf2RYT+X5lhbyv8APLAznLyOeWOM4HAAo/YL/bz+Ovxq/ax8C+DfGfjn+2fDepfbvtVl/ZFhB5nl2FxKnzxQK4w8aHhhnGDwSKAPtX9hn9hr/hjA+Ns+Nv8AhMf+El+w/wDMJ+w/Z/s/2j/ptLv3faPbG3vnj6q4r4A/4Ks/tRfE79mv/hV3/CuPE3/CO/21/an2/wD0C1uvO8n7J5f+vifbjzZPu4zu5zgY+AP+Ho37Tv8A0Uz/AMoGl/8AyNQAv/BLn/k+v4Z56f8AEz/9Nl3X7+DGB0rwL4XfsF/Ar4L+OtM8ZeDfA50bxJpvm/Zb3+17+fy/MieJ/klnZDlJHHKnGcjBANfP3/BVr9qL4nfs1f8ACrh8OPE3/CODWv7U+3/6Ba3XneT9k8r/AF8T7cebJ93Gd3OcDAB9/wDHtXyt/wAFRuf2FPiZ/wBwz/052lflV/w9G/ad/wCimf8AlA0v/wCRq5X4o/t6fHX40+BdT8G+M/HA1nw3qXlfarL+yLCDzPLlSVPnigVxh40PDDOMHIJFAHgHQ0ZoJyST1NFAH7/f8FR/+TE/ib/3DP8A06WlfKn/AAQy/wCa2f8AcE/9v6+q/wDgqP8A8mJ/E3/uGf8Ap0tK+VP+CGX/ADWz/uCf+39AHyt/wVG4/br+Jn/cM/8ATZaV8q5r6q/4Kj/8n2fE3/uGf+mu0r5VoA/VP/ghl/zWz/uCf+39fK3/AAVH/wCT7Pib/wBwz/012lfVP/BDL/mtn/cE/wDb+vlb/gqP/wAn2fE3/uGf+mu0oA/f6iiigAooooAKQ9KWkPSgD8Av+Co//J9nxN/7hn/prtK/VT/h6L+zH/0Uw/8Agg1T/wCRq8p/ai/4JS/8NKfHXxN8R/8AhaP/AAjn9tfZf+Jb/wAI/wDavJ8m1ig/1v2pN2fK3fdGN2OcZPlf/DjL/qtn/lqf/dtAH1V/w9F/Zj/6KYf/AAQap/8AI1H/AA9F/Zj/AOimH/wQap/8jV8qH/ghnj/mtn/lqf8A3bS/8OMv+q2f+Wp/920AdX+3r+3n8CvjT+yd468G+DPHB1nxJqX2H7LZf2RfweZ5d/byv88sCoMJG55YZxgckCuU/wCCGYx/wuz/ALgn/t/R/wAOMv8Aqtn/AJan/wB219U/sMfsM/8ADF58bf8AFbf8Jj/wkv2L/mE/Yfs/2f7R/wBN5d+7z/bG3vngA/Kz/gqP/wAn2fE3/uGf+mu0r1X9lv8AZc+J37F/x28M/GT4yeGf+EO+G/hr7V/autfb7W++zfaLWW1h/c2sssz7priJPkQ43ZOFBI+qf2ov+CUv/DSnx18TfEf/AIWj/wAI5/bX2X/iW/8ACP8A2ryfJtYoP9b9qTdnyt33RjdjnGT6t/wVGH/GCnxM/wC4Z/6c7SgD5U/bo/42TDwT/wAM5f8AFxP+EL+3f29/zC/sf2v7P9m/4/fJ8zf9kuP9Xu27PmxuXP5r/FL4W+J/gt471Pwb4y0z+xvEmm+V9qsvPin8vzIklT54mZDlJEPDHGcHkEV9AfsNfty/8MX/APCbZ8E/8JifEv2L/mK/Yfs32f7R/wBMZd+77R7Y2988fVH/AAwx/wAPJ/8AjI7/AITb/hXX/Caf8y1/ZX9qfY/sn+gf8fPnQ+Zv+yeZ/q1279vO3cQD4r+KP7Bfx1+C3gXU/GXjPwONG8N6b5X2q9/tewn8vzJUiT5Ip2c5eRBwpxnJwATXK/A39lr4n/tJf23/AMK58M/8JF/Yvkfb/wDT7W18nzvM8v8A18qbs+VJ93ONvOMjP7U/8FRuP2FPiZ/3DP8A052lflX+wz+3L/wxePG3/FE/8Jl/wkv2L/mLfYfs32f7R/0xl37vtHtjb3zwAff/AOy3+1H8Mf2L/gT4Z+Dfxk8Tf8Id8SPDX2r+1dF/s+6vvs32i6luof31rFLC+6G4if5HON2DhgQPzV+KP7Bfx1+C3gXU/GXjPwONG8N6b5X2q9/tewn8vzJUiT5Ip2c5eRBwpxnJwATXK/tR/HP/AIaT+Ovib4j/ANiHw7/bX2X/AIln2v7V5Pk2sUH+t2Juz5W77oxuxzjJ+qv2ov8Agq0P2k/gV4m+HH/Crv8AhHP7a+y/8TP/AISD7V5Pk3UU/wDqvsqbs+Vt+8Mbs84wQD5V+Bv7LXxP/aS/tv8A4Vz4Z/4SL+xfI+3/AOn2tr5PneZ5f+vlTdnypPu5xt5xkZ/VT9lv9qP4Y/sX/Anwz8G/jJ4m/wCEO+JHhr7V/aui/wBn3V99m+0XUt1D++tYpYX3Q3ET/I5xuwcMCB8AfsNftzD9i/8A4Tb/AIon/hMf+El+xf8AMW+w/Zvs/wBo/wCmMu/d5/tjb3zx9Vf8MMf8PJ/+Mjv+E2/4V1/wmn/Mtf2V/an2P7J/oH/Hz50Pmb/snmf6tdu/bzjcQD4q+KP7Bfx1+C3gXU/GXjPwONG8N6b5X2q9/tewn8vzJUiT5Ip2c5eRBwpxnJwATX2p/wAEM/l/4XbnjH9iZ/8AJ+l/4bn/AOHk/wDxjl/whP8Awrr/AITT/mZf7V/tT7H9k/0//j28iHzN/wBk8v8A1i7d+7nbtKf8oX/+qxf8LK/7gf8AZ39n/wDgT5vmfb/9jb5X8W75QD7W+KP7enwK+C/jrU/BvjLxwdG8Sab5X2qy/si/n8vzIklT54oGQ5SRDwxxnBwQRXKf8FR/+TE/ib/3DP8A06Wlfit+1H8c/wDhpP46+JviONEPh3+2vsv/ABLPtf2ryfJtYoP9bsTdnyt33RjdjnGT+/v7UfwN/wCGk/gV4m+HH9t/8I7/AG19l/4mX2T7V5Pk3UU/+q3puz5W37wxuzzjBAPwC+Bv7LnxO/aSGtn4c+Gf+EiGi+R9vzf2tr5PneZ5f+vlTdnypPu5xt5xkZ5X4pfC3xP8FvHep+DfGWmf2N4k03yvtVl58U/l+ZEkqfPEzIcpIh4Y4zg8giv3R/YZ/YZ/4Yu/4TbPjb/hMf8AhJPsX/MK+w/Zvs/2j/pvLv3ef7Y2988eV/tRf8Epf+GlPjr4m+I//C0f+Ec/tr7N/wAS3/hH/tXk+TaxQf637Um7PlbvujG7HOMkA9W/4Kj/APJifxN/7hn/AKdLSvgD/glL+1F8Mf2a/wDhaP8AwsfxN/wjv9tf2X9g/wBAurrzvJ+1+b/qIn2482P72M7uM4OP1U/aj+Bn/DSfwK8TfDj+2/8AhHf7a+y/8TL7J9q8nybqKf8A1W9N2fK2/eGN2ecYP5//APDjPHH/AAuzH/cqf/dtAH1X/wAPRf2Y/wDoph/8EGqf/I1H/D0X9mP/AKKYf/BBqn/yNXyr/wAOMv8Aqtn/AJan/wB20f8ADjP/AKrZ/wCWp/8AdtAH1V/w9F/ZjPA+JZz/ANgDVP8A5Gr8gP29fij4Y+NH7WPjnxl4N1P+2PDep/Yfsl79nlg8zy7C3if5JVVxh43HKjOMjgg19qf8OM/+q2f+Wp/920f8OMv+q2f+Wp/920AfqrRRRQAUUUUAFFFITgEnoKAForwD4o/t6fAr4L+OtT8G+MvHB0bxJpvlfarL+yL+fy/MiSVPnigZDlJEPDHGcHBBFfzrUAftR/wVb/ai+J37Nn/Crx8OfE3/AAjo1r+1Pt/+gWt153k/ZPL/ANfE+3HmyfdxndznAx9AfsFfFHxP8aP2TvA3jLxlqf8AbPiTU/t32u9+zxQeZ5d/cRJ8kSqgwkaDhRnGTySa/nXAyQB1Ne//AAu/YL+Ovxp8C6Z4y8GeBxrPhvUvN+y3v9r2EHmeXK8T/JLOrjDxuOVGcZGQQaAP2p/b1+KPif4L/sneOfGXg3U/7G8SaZ9h+yXv2eKfy/Mv7eJ/klVkOUkccqcZyOQDXz//AMEpP2ovid+0n/wtAfEbxN/wkQ0X+y/sH+gWtr5Pnfa/M/1ESbs+VH97ONvGMnPq3/D0X9mP/oph/wDBBqn/AMjV6p8Df2pfhh+0l/bf/CufE3/CRf2L5H2//QLq18nzvM8v/XxJuz5Un3c4284yMgHq1cp8UvhZ4Y+NPgTU/BvjLTP7Y8N6l5X2qy+0SweZ5cqSp88TK4w8aHhhnGDwSK8r+KP7enwK+C/jrU/BvjLxwdG8Sab5X2qy/si/n8vzIklT54oGQ5SRDwxxnBwQRX861AH6Af8ABVr9l74Zfs1t8Lj8OPDP/COnWv7UN+ft91ded5P2Ty/9fK+3HmyfdxndznAx8/fC79vT46/BbwLpng3wZ44GjeG9N837LZf2RYT+X5kryv8APLAznLyOeWOM4GAAK+1P+CGRwPjYT0/4kn/t/X2t8Uf29PgV8F/HWp+DfGXjg6N4k03yvtVl/ZF/P5fmRJKnzxQMhykiHhjjODggigDlP+Co/wDyYn8Tf+4Z/wCnS0r4A/4JS/su/DH9pT/haP8Awsfwz/wkX9i/2X9g/wBPurXyfO+1+b/qJU3Z8qP72cbeMZOf0p/b1+F3if40fsneOfBvg3TP7Z8San9h+yWX2iKDzPLv7eV/nlZUGEjc8sM4wOSBX5Af8Ouv2nMZ/wCFZ8dc/wBv6X/8k0Afqr/w66/Zj/6Jmf8Awf6p/wDJNfgDX9FH7BXwu8T/AAX/AGTvA3g3xlpn9jeJNM+3fa7L7RFP5fmX9xKnzxMyHKSIeGOM4PIIr6AoA/lXr9/v+CXH/Jifwy/7if8A6dLuvKf+Crf7LvxO/aT/AOFXn4c+Gf8AhIhov9qfb/8AT7W18nzvsnl/6+VN2fKk+7nG3nGRn8gvil8LfE/wW8d6n4N8ZaZ/Y3iTTfK+1WXnxT+X5kSSp88TMhykiHhjjODyCKAP3++F37BfwK+C/jrTPGXg3wOdG8Sab5v2W9/te/n8vzInif5JZ2Q5SRxypxnIwQDXU/HL9lr4YftJf2J/wsbwz/wkX9i+f9g/0+6tfJ87y/M/1Eqbs+VH97ONvGMnP5q/sF/sGfHX4K/tY+BfGXjPwN/Y3hvTft32q9/tewn8vzLC4iT5Ip2c5eRBwpxnJ4BNfQH/AAVZ/Zd+J37Sn/Crv+FceGf+Ei/sX+1Pt/8Ap9ra+T532Ty/9fKm7PlSfdzjbzjIyAerf8Ouv2Y/+iZn/wAH+qf/ACTX5Vf8PRv2nf8Aopn/AJQNL/8Akaj/AIdc/tO/9Ez/APK/pf8A8k0f8Ouf2nf+iZ/+V/S//kmgA/4ei/tOHg/Ezj/sAaX/API1fr/+wV8UfE/xo/ZO8DeMvGWp/wBs+JNT+3fa737PFB5nl39xEnyRKqDCRoOFGcZPJJr5/wD+CUv7LvxO/Zq/4WifiP4Z/wCEcGtf2X9g/wBPtbrzvJ+1+b/qJX2482P72M7uM4OPoH4o/t6fAr4L+OtT8G+MvHB0bxJpvlfarL+yL+fy/MiSVPnigZDlJEPDHGcHBBFAHv8AX5//APBVv9qP4nfs1n4Xf8K48Tf8I7/bX9qfb/8AQLW687yfsnlf6+J9uPNk+7jO7nOBj5W/Zb/Zc+J37F/x28M/GT4yeGf+EO+G/hr7V/autfb7W++zfaLWW1h/c2sssz7priJPkQ43ZOFBI/VP4G/tSfDD9pIa3/wrnxN/wkX9i+R9v/0C6tfJ87zPL/18Sbs+VJ93ONvOMjIB+K3/AA9G/ad/6KZ/5QNL/wDkavf/ANgv9vP46/Gr9rHwL4N8Z+Of7Z8N6l9u+1WX9kWEHmeXYXEqfPFArjDxoeGGcYPBIr9Afij+3p8Cvgv461Pwb4y8cHRvEmm+V9qsv7Iv5/L8yJJU+eKBkOUkQ8McZwcEEV+QH/BLj/k+z4Zf9xP/ANNd3QB9/f8ABVn9qL4nfs1/8Ku/4Vx4m/4R3+2v7U+3/wCgWt153k/ZPL/18T7cebJ93Gd3OcDHwB/w9G/ad/6KZ/5QNL/+Rq+//wDgq1+y78Tv2kx8Lj8OfDP/AAkQ0X+1Pt/+n2tr5PnfZPL/ANfKm7PlSfdzjbzjIz+QXxS+Fvif4LeO9T8G+MtM/sbxJpvlfarLz4p/L8yJJU+eJmQ5SRDwxxnB5BFAH9PtFFFABRRRQAUh6UtIelAH4Bf8FRuP26/iZ/3DP/TZaV5T+y58DP8AhpP46+Gfhx/bf/CO/wBtfav+Jl9k+1eT5NrLP/qt6bs+Vt+8Mbs84wfVv+Co/wDyfZ8Tf+4Z/wCmu0rwD4W/FLxP8FvHemeMvBup/wBjeJNN837Le+RFP5fmRPE/ySqyHKSOOVOM5HIBoA/Sj/hxmOv/AAuz/wAtT/7tr7//AGXPgZ/wzb8CvDPw5/tv/hIv7F+1f8TP7J9l87zrqWf/AFW99uPN2/eOdueM4H4rf8PRf2nMY/4WWMdMf2Bpf/yNX6//ALBXxR8T/Gj9k7wN4y8Zan/bPiTU/t32u9+zxQeZ5d/cRJ8kSqgwkaDhRnGTySaAPiv/AIcZf9Vs/wDLU/8Au2k/5Qvf9Vi/4WT/ANwP+zv7P/8AAnzfM+3/AOxt8r+Ld8vyr/w9G/ad/wCimf8AlA0v/wCRq8r+Of7UnxP/AGkxon/Cx/E3/CRf2L5/2D/QLW18nzvL83/URJuz5Uf3s428YycgB+1H8c/+Gk/jr4m+I40X/hHf7a+y/wDEs+1/avJ8m1ig/wBbsTdnyt33RjdjnGT9VftRf8EpP+Ga/gV4m+I//C0f+Ej/ALF+y/8AEs/4R/7L53nXUUH+t+1Ptx5u77pztxxnI+AK/p9+KXws8MfGnwJqfg3xlpn9seG9S8r7VZfaJYPM8uVJU+eJlcYeNDwwzjB4JFAH5q/8EM+P+F2f9wT/ANv69V/ai/4JTf8ADSfx18TfEf8A4Wj/AMI5/bX2b/iWf8I/9q8nybWKD/W/ak3Z8rd90Y3Y5xk/VXwO/Zb+GP7Nv9tn4c+Gf+EdOteR9vzf3V153k+Z5f8Ar5X2482T7uM7uc4GPzV/b0/bz+OvwV/ax8deDfBnjn+xvDem/Yfstl/ZFhP5fmWFvK/zywM5y8jnljjOBwAKAP0q/aj+Of8Awzb8CvE3xG/sT/hIv7F+y/8AEs+1/ZfO866ig/1ux9uPN3fdOduOM5HlX7DP7cv/AA2h/wAJsD4J/wCEO/4Rr7F/zFft32n7R9o/6YRbNv2f3zu7Y5+Af2W/2o/if+2h8dvDPwb+Mnib/hMfhv4l+1f2rov9n2tj9p+z2st1D++tYopk2zW8T/I4ztwcqSD+qfwM/Zc+GP7Nn9tH4c+Gf+Ed/tryPt/+n3V153k+Z5X+vlfbjzZPu4zu5zgYAPVaM0tfj/8AsF/t5/HX41ftY+BfBvjPxz/bPhvUvt32qy/siwg8zy7C4lT54oFcYeNDwwzjB4JFAH6/kAjPWvgD9qL/AIJS/wDDSnx18TfEf/haP/COf219l/4lv/CP/avJ8m1ig/1v2pN2fK3fdGN2OcZP3/j5cV+QH7en7efx1+Cv7WPjrwb4M8c/2N4b037D9lsv7IsJ/L8ywt5X+eWBnOXkc8scZwOABQB+lX7Ufxy/4Zs+BXib4j/2J/wkX9i/Zf8AiW/a/svneddRQf63Y+3Hm7vunO3HGcj4A/4fmD/oif8A5df/ANxV9V/8FR/+TE/iZ/3DP/TpaV+APegD+lL9lz45f8NJ/Arwz8R/7E/4R3+2vtX/ABLftf2ryfJupYP9bsTdnyt33RjdjnGT8q/su/8ABVr/AIaU+Ovhn4cf8Ku/4Rz+2vtX/Ey/4SD7V5Pk2ss/+q+ypuz5W37wxuzzjB9W/wCCXH/Jifwy/wC4n/6dLuvyr/4Jcf8AJ9nwy/7if/pru6AP1S/bm/bl/wCGL/8AhCf+KJ/4TH/hJftv/MW+w/Z/s/2f/phLv3ef7Y2988fK/wDwwx/w8n/4yN/4Tb/hXX/Caf8AMtf2V/an2P7J/oH/AB8+fD5m/wCyeZ/q1279vO3cT/guYcH4JEdv7b/9sK+Kvhd+3p8dfgt4F0zwb4M8cDRvDem+b9lsv7IsJ/L8yV5X+eWBnOXkc8scZwMAAUAfun+1H8DP+GkvgV4m+HP9t/8ACO/219l/4mf2T7V5Pk3UU/8Aqt6bs+Vt+8Mbs84wfgDP/Dl/r/xeL/hZP/cD/s7+z/8AwJ83zPt/+xt8r+Ld8v2r+3r8UfE/wX/ZO8c+MvBup/2N4k0z7D9kvfs8U/l+Zf28T/JKrIcpI45U4zkcgGvir9hcf8PJv+E2H7Rv/FxP+EL+w/2D/wAwv7H9r+0faf8Ajx8jzN/2S3/1m7bs+XG5sgHwD+1H8c/+Gk/jr4m+I40Q+Hf7a+y/8Sz7X9q8nybWKD/W7E3Z8rd90Y3Y5xk+q/8ABLj/AJPs+GX/AHE//TXd1+qn/Drr9mP/AKJmf/B/qn/yTX5V/wDBLj/k+z4Zf9xP/wBNd3QB+/uBivwB/wCCo3/J9fxN/wC4Z/6bLSv3+7V+AX/BUf8A5Ps+Jv8A3DP/AE12lAH7/UUUUAFFFFABSHpS0h6UAfgF/wAFR/8Ak+z4m/8AcM/9NdpX7/V+AP8AwVG5/br+Jn/cM/8ATZaV+/uaAPKvjn+1H8Mf2bP7FHxG8Tf8I7/bXn/YP9AurrzvJ8vzf9RE+3Hmx/exndxnBx+Vn7Un7LnxO/bQ+O3ib4yfBvwz/wAJj8N/Ev2X+yta+32tj9p+z2sVrN+5upYpk2zW8qfOgztyMqQT6r/wXNPPwTx/1G//AGwr6p/4Jc/8mKfDPPX/AImf/pzu6APyB/YK+KPhj4L/ALWPgbxl4y1P+x/Demfbvtd79nln8vzLC4iT5IlZzl5EHCnGcngE1+v/APw9F/ZjHB+JZz/2ANU/+Rq/Fb9lz4Gf8NJ/HXwz8OP7b/4Rz+2vtX/Ez+yfavJ8m1ln/wBVvTdnytv3hjdnnGD9/f8ADjTP/Nbf/LU/+7aAPqv/AIei/sx/9FMP/gg1T/5Gryr9qT9qP4Y/tofAnxN8G/g34m/4TH4keJfsv9laL/Z91Y/afs91FdTfvrqKKFNsNvK/zuM7cDLEA+Vf8OM/+q2f+Wp/920f8MMf8O2P+Mjf+E2/4WL/AMIX/wAy1/ZX9l/bPtf+g/8AHz503l7Ptfmf6ts7NvGdwAPlT/h1z+05/wBEz/8AK9pn/wAk1+gH7Lf7Ufwx/Yv+BPhn4N/GTxN/wh3xI8Nfav7V0X+z7q++zfaLqW6h/fWsUsL7obiJ/kc43YOGBA9T/Ya/bl/4bPHjYHwT/wAId/wjX2L/AJiv277T9o+0f9MItm3yPfO7tjn8rf8AgqN/yfX8TMdP+JZ/6bLSgC5pH/BLD9pXUNTtrW58B22lQTSBHvbvXLBooATy7iKZ3IHfarH0Br9F/wBjX4C+Af2EH8X6fqfxW07X9b10WQvoGhW3Fo8HnkKAHduftB+9g/KDgZwPqT4za7eeHPhV4r1LT5jb31vp8rQzr1icrgMPcZyPpX5gszSMzsxZ2O5mY5LHuSe9ffcMcMxz6NSrVqcsY2Wiu2zwsyzJ4FxjGN2z9Mf+GhPhwP8AmcdM/wC/v/1q8z/aR1X4WftHfBfxD8O7/wCIllotprP2fffWxEkkflXEU4wrYByYgPoa+GSat6PYJqusWNlJdxWMdzOkLXU5/dwhmALt7DqfYGvtZ+H2DpxcpYiVl5I8ZZ9WbsoIgH/BMf4E5z/wv+fP/XnD/wDFV9x/s3ap8LP2cfgv4e+Hdh8RLLWbTRvtGy+uSI5JPNuJZzlRkDBlI+gr5Q8a/DJfDeqw2en6tb6jNJEJDayvHFcxHJG1lDsuSAGADE4YcCuLuIJbWZ4pkeGVDhkcEFT6EGubDcDZdi4KpRxMmn5Jfgy553iKbtKmj9Lf+Gg/hx38Z6Sg/vPOFUfUngfjVT4x/tLfDj9n/QNJ1zx34hbR9H1aTybO/h0+5vIZX2bwu63jkCkrll3Y3AMRnacfmzivTvGm/wAU/wDBOj4zaZqbm8tdKaK4sVm+b7ORLDIAh6gbgT/wNuxIrweIuD4ZNhPrdGq5JNJprv2sd+X5tLF1fZTjb0Pfv+Hov7Mf/RTP/KBqn/yNX5AfsFfFHwx8F/2sfA3jLxlqf9j+G9M+3fa737PLP5fmWFxEnyRKznLyIOFOM5PAJr6A/Zd/4JTf8NKfArwz8R/+Fo/8I5/bX2n/AIln/CP/AGryfJupYP8AWfak3Z8rd90Y3Y5xk/AHNfmZ9Ifqn+3R/wAbJf8AhCf+Gcv+Lif8IV9u/t7/AJhf2P7X9n+zf8f3k+Zv+yXH+r3bdnzY3Ln7V/YK+F3if4L/ALJ3gbwb4y0z+xvEmmfbvtdl9oin8vzL+4lT54mZDlJEPDHGcHkEV8Vf8EM+nxsz/wBQT/2/r1X9qL/gq1/wzX8dfE3w4/4Vd/wkf9i/Zv8AiZ/8JB9l87zrWKf/AFX2V9uPN2/eOdueM4ABy37ev7efwK+NP7J3jrwb4M8cHWfEmpfYfstl/ZF/B5nl39vK/wA8sCoMJG55YZxgckCvzV+Bv7LfxP8A2kv7b/4Vz4Z/4SL+xfI+3/6fa2vk+d5nlf6+VN2fKk+7nG3nGRn7/wD+HGX/AFWz/wAtT/7tpD/xpf6/8Xi/4WT/ANwP+zv7P/8AAnzfM+3/AOxt8r+Ld8oB6t+y3+1H8Mf2L/gT4Z+Dfxk8Tf8ACHfEjw19q/tXRf7Pur77N9oupbqH99axSwvuhuIn+Rzjdg4YED5V/Zb/AGXPid+xf8dvDPxk+Mnhn/hDvhv4a+1f2rrX2+1vvs32i1ltYf3NrLLM+6a4iT5EON2ThQSPlX9qP45/8NJ/HXxN8R/7EPh3+2vsv/Es+1/avJ8m1ig/1uxN2fK3fdGN2OcZP7+/tR/Az/hpP4FeJvhz/bY8O/219l/4mf2T7V5Pk3UU/wDqt6bs+Vt+8Mbs84wQD4A/bo/42TDwT/wzl/xcT/hC/t39vf8AML+x/a/s/wBm/wCP3yfM3/ZLj/V7tuz5sblz+a/xS+Fvif4LeO9T8G+MtM/sbxJpvlfarLz4p/L8yJJU+eJmQ5SRDwxxnB5BFfpR/wAoYP8AqsR+JP8A3A/7O/s//wACfN8z7f8A7G3yv4t3yr/wwv8A8PJ/+Mjv+E2/4V1/wmn/ADLX9lf2p9j+yf6B/wAfPnQ+Zv8Asnmf6tdu/bzt3EA/VSiiigAooooAKQjIIPQ0tIeBQB4D8Uf2C/gV8aPHWp+MvGXgc6z4k1LyvtV7/a9/B5nlxJEnyRTqgwkaDhRnGTkkmvz+/YL/AG8/jr8av2sfAvg3xn45/tnw3qX277VZf2RYQeZ5dhcSp88UCuMPGh4YZxg8Eij9vT9gz46/Gr9rHx14y8GeBv7Z8N6l9h+y3v8Aa9hB5nl2FvE/ySzq4w8bjlRnGRwQa5b9lv8AZc+J37F/x28M/GT4yeGf+EO+G/hr7V/autfb7W++zfaLWW1h/c2sssz7priJPkQ43ZOFBIAPVP8AguZ8v/Cksdv7b/8AbCviv4Xft6fHX4LeBdM8G+DPHA0bw3pvm/ZbL+yLCfy/MleV/nlgZzl5HPLHGcDAAFfun8DP2o/hj+0n/bY+HPib/hIv7F8j7f8A6BdWvk+d5nlf6+JN2fKk+7nG3nGRn8V/+Co//J9nxN/7hn/prtKAPv8A/ak/Zc+GP7F/wJ8TfGT4N+Gf+EO+JHhr7L/ZWtf2hdX32b7RdRWs37m6llhfdDcSp86HG7IwwBCf8Epv2ovid+0p/wALR/4WP4m/4SL+xf7L+wf6Ba2vk+d9r8z/AFESbs+VH97ONvGMnPyt+y3+y58Tv2L/AI7eGfjJ8ZPDP/CHfDfw19q/tXWvt9rffZvtFrLaw/ubWWWZ901xEnyIcbsnCgkff4/4Ki/sx/8ARTP/ACgap/8AI1AHxT+3p+3n8dfgr+1j468G+DPHP9jeG9N+w/ZbL+yLCfy/MsLeV/nlgZzl5HPLHGcDgAVy37Lf7UfxO/bQ+O3hn4N/GTxN/wAJj8N/Ev2r+1dF+wWtj9p+z2st1D++tYopk2zW8T/I4ztwcqSD9/8A/D0X9mP/AKKYf/BBqn/yNR/w9F/Zj/6KYf8AwQap/wDI1AHqnwN/Zb+GH7No1v8A4Vz4Z/4R3+2vI+3/AOn3V153k+Z5f+vlfbjzZPu4zu5zgY5b4o/sF/Ar40eOtT8ZeMvA51nxJqXlfar3+17+DzPLiSJPkinVBhI0HCjOMnJJNfmr/wAFWv2ovhj+0ofhd/wrjxN/wkX9i/2p9v8A9AurXyfO+yeX/r4k3Z8qT7ucbecZGfoD9gr9vP4FfBb9k7wL4N8Z+ODo3iTTft32qy/si/n8vzL+4lT54oGQ5SRDwxxnB5BFAH3D+0F/yRfxp/2Dnr80a/S79oP/AJIx40/7Bz1+aNfu3h1/ulf/ABL8j4jP/wCLD0Ov8C6NdXF7YPY2cN/q2oXP2PT7adFkj3EYaR1IIKqGHJyBye1e96f8MvC/w88N2syf2Pdapet9msrrXohK+o3BYIGgic7IrdXIPmsHLLyMAqT5z8F1jXxJbuJGjeHwvqMsDofmWTEwJB9QN35V9IfEf4MeANJi8F317ZqNPtNSjhury7unYGFo32iV3Y5XzFiHPABwMA4rl4izOUccsNOUoxer5Vq7Xst1p5dW35WMBhr0XUik2u/QteJf2eNLvtBTzrHSNXKwE3CpYxWM7kLyYZoQoTnJAdWB6EjrXyb458GJZPaw2102qaXe2hvdC1SRdsksS5328n+2mCNvY47MBX058ZPA91qF5p+g/DDUn0TWZ/nv7LT7p4bWO1KkrJIqnZHlgAMLl89wDjzb4vy2E3hXwybe1NhdWniOGzazZQvkSLaxJcIAOMB0TkEg7s55ryOHsbXo1Kf73mU2/d6x7O3m+26vfpbqx1KEoy921uvf+vzPmCvUNT/5R/8Ax79oUP6xV5pdKq3Uwj5jDnb9M19k/sNjPgLxSP8Ap/j/APQBX3XHDvkrf96J5WTK2MXoz8fvhd+3r8dfgv4F0zwb4N8cjRvDem+b9lsv7IsJ/L8yV5X+eWBnOXkc8scZwOABX6//APDrr9mP/omZ/wDB/qn/AMk18Uft4/sF/HX40/tXeOPGXgzwONZ8N6l9h+y3v9r2EHmeXYW8T/JLOrjDxuOVGcZHBBr4D+Fvwt8T/Gnx3png3wbpn9s+JNS837LZefFB5nlxPK/zysqDCRueWGcYHJAr+cD9CP0p/bn/AONbB8E/8M4/8W6/4TT7d/b3/MU+2fZPs/2b/j+87y9n2u4/1e3dv+bO1ceq/st/sufDH9tD4E+GfjJ8ZPDP/CY/EjxL9q/tXWv7QurH7T9nupbWH9zayxQptht4k+RBnbk5YklP+CUv7LvxO/ZsHxRPxG8M/wDCOjWv7L+wf6fa3XneT9r8z/USvtx5sf3sZ3cZwcfAP/BUf/k+z4m/9wz/ANNdpQAn/D0b9p3/AKKZ/wCUDS//AJGr6q/YX/42T/8ACbf8NHf8XF/4Qv7D/YP/ADC/sf2v7R9p/wCPHyPM3/Zbf/Wbtuz5cbmz+a/wt+Fvif40+O9M8G+DdM/tnxJqXm/ZbLz4oPM8uJ5X+eVlQYSNzywzjA5IFfr5/wAEpf2Xfid+zYPiifiP4Z/4R0a1/Zf2D/T7W687yftfmf6iV9uPNj+9jO7jODgA9X/4ddfsx/8ARMz/AOD/AFT/AOSa/Kr/AIejftO/9FM/8oGl/wDyNXv/AO3p+wZ8dfjV+1j468ZeDPA39s+G9S+w/Zb3+17CDzPLsLeJ/klnVxh43HKjOMjgg1+a9AH6qfsLn/h5OfGx/aN/4uIfBf2H+wf+YX9j+1/aPtP/AB4+R5m/7Jb/AOs3bdny43Nn9Kfhb8LPDHwW8CaZ4N8G6Z/Y/hvTfN+y2X2iWfy/MleV/nlZnOXkc8scZwOABX5A/wDBKT9qL4Y/s2f8LR/4WN4m/wCEd/tr+y/sH+gXV153k/a/M/1ET7cebH97Gd3GcHHz/wDt6/FHwx8aP2sfHPjLwbqf9seG9T+w/ZL37PLB5nl2FvE/ySqrjDxuOVGcZHBBoA/opooooAKKKKACiiigBMV+K/7UX/BVn/hpP4FeJvhx/wAKu/4Rz+2vsv8AxM/+Eg+1eT5N1FP/AKr7Km7PlbfvDG7POMH9qa+Vf+HXX7Mf/RMz/wCD/VP/AJJoA/Kz9hr9ub/hi/8A4Tb/AIon/hMf+El+xf8AMW+w/Zvs/wBo/wCmEu/d9o9sbe+ePqk/sMf8PJz/AMNHf8Jt/wAK6/4TT/mWv7K/tT7H9k/0D/j586HzN/2TzP8AVrt37edu4+Vf8FWv2Xvhj+zUfhcfhx4Z/wCEdOtf2p9v/wBPurrzvJ+yeV/r5X2482T7uM7uc4GPn/4Xft6fHX4LeBdM8G+DPHA0bw3pvm/ZbL+yLCfy/MleV/nlgZzl5HPLHGcDAAFAH7p/tR/Az/hpL4FeJvhz/bf/AAjv9tfZf+Jn9k+1eT5N1FP/AKrem7PlbfvDG7POMH4A/wCHGnc/G3/y1P8A7tr7V/b1+KPif4L/ALJ3jnxl4N1P+xvEmmfYfsl79nin8vzL+3if5JVZDlJHHKnGcjkA1+QH/D0X9pwcf8LM4/7AGl//ACNQB5X+1H8DP+GbPjr4m+HH9tnxF/Yv2X/iZ/ZPsvnedaxT/wCq3vtx5u37xztzxnAP2XPgZ/w0n8dfDPw4Otnw7/bX2r/iZ/ZPtXk+Tayz/wCq3puz5W37wxuzzjB/VT9lv9lz4Y/tofAnwz8ZPjJ4Z/4TH4keJftX9q61/aF1Y/afs91Law/ubWWKFNsNvEnyIM7cnLEk/QHwu/YL+BXwX8daZ4y8G+Bzo3iTTfN+y3v9r38/l+ZE8T/JLOyHKSOOVOM5GCAaAPir/hxn/wBVs/8ALU/+7aP+HGX/AFWz/wAtT/7tr1T/AIKtftRfE79mr/hVw+HHib/hHBrX9qfb/wDQLW687yfsnlf6+J9uPNk+7jO7nOBj4A/4ejftO/8ARTP/ACgaX/8AI1AH7b/tBHPwY8af9g5q/NGvTv2NP2j/AIi/tG/svfG7UPiJ4i/4SG70wxQWkn2K2tfLRoyzDEEaA5IHJBNeY1+7eHf+6V/8S/I+Iz/+LD0O2+Hnii80TUdNutPCPq2lztNbxP0uoWGJoD9Vzx1O5sc4z9Dafp3h742eG10t/Eev3uk+assVlBPE82llQQIpYGXzHC5ZVdN+QOQCMn5QttF1C5jtJobWVluJfKhdRje454Pt69Biux8Nadq2ua/p6ah4Y/4SFRcWxk2kxTSrIQUHmqQDuUH5mzjByRg17md5dSxE/rNGqozjre6urPzt121Vm+p5+Erypr2c43TPsHwr4pt/hf4IbTf7Aj0P7H+6fV74C1tLgKoxcN5h85yeBs2lt2QDtw1fNHxa+IJ17UIr6ITDS7UStpr3EflyX9zK3728K9VXgbQeAFQDkNjkviYyeIvEcU+k6He2giQWs5kszD5s4kYY8tSwQjcibQxyVz1JFczd6RrcsqRXVpfvJDCAsc0blkjG4jAPReG9uD715mSZBQoSWNrVFzy1ae6v83q/ye1zoxeOnOPsYrRf12MoDFfR/wAF/ir/AMKP/Zg+KXjv+y/7b/sORLr+z/tH2fz+EXb5m1tv3s52npXzhX1d+yz4D0L4n/BHx94V8TWP9p6Dql0kF3aedJF5qbVON8bKw5A6EV6PHX/Iml/iiZ5L/vi9GfOQ/wCC5e0Af8KTzjv/AMJX/wDcVeq/su/8Epf+Ga/jr4Z+I/8AwtH/AISP+xftP/Et/wCEf+y+d51rLB/rftT7cebu+6c7ccZyPVU/4JdfsxlBn4aE8f8AQf1P/wCSa6v9vX4o+J/gv+yd458ZeDdT/sbxJpn2H7Je/Z4p/L8y/t4n+SVWQ5SRxypxnI5ANfzefoZ78MYr4B/ai/4JS/8ADSnx18TfEf8A4Wj/AMI5/bX2X/iW/wDCP/avJ8m1ig/1v2pN2fK3fdGN2OcZPwB/w9F/acHA+JnH/YA0v/5Go/4ejftO/wDRTP8AygaX/wDI1AHlf7Lnxy/4Zs+Ovhn4j/2J/wAJF/Yv2r/iW/a/svnedaywf63Y+3Hm7vunO3HGcj7+/wCH5gH/ADRP/wAuv/7irrP29f2DPgV8Fv2TvHXjLwZ4HOjeJNN+w/Zb3+17+fy/Mv7eJ/klnZDlJHHKnGcjkA1+QBOTQB+qf/D83/qif/l1/wD3FXlf7UX/AASk/wCGa/gV4m+I/wDwtH/hI/7F+y/8Sz/hH/svneddRQf637U+3Hm7vunO3HGcj4Ar+n34pfCzwx8afAmp+DfGWmf2x4b1LyvtVl9olg8zy5UlT54mVxh40PDDOMHgkUAfhZ+wz+w1/wANn/8ACbf8Vt/whv8AwjX2L/mE/bvtH2j7R/03i2bfs/vnd2xz5V+1H8DP+GbPjr4m+HH9t/8ACR/2L9l/4mf2T7L53nWsU/8Aqt77cebt+8c7c8ZwPv8A/boP/Dtk+Cf+Gcv+Ldnxp9u/t7/mKfbPsn2f7N/x/ed5ez7Xcf6vbu3/ADZ2rj1X9lv9lz4Y/tofAnwz8ZPjJ4Z/4TH4keJftX9q61/aF1Y/afs91Law/ubWWKFNsNvEnyIM7cnLEkgH3/RRRQAUUUUAFITgEnoKWkPQ0AeA/FH9vT4FfBfx1qfg3xl44OjeJNN8r7VZf2Rfz+X5kSSp88UDIcpIh4Y4zg4IIr3+vwB/4Kjf8n1/EzH/AFDP/TZaV9/fsu/8FWj+0n8dfDPw4/4Vd/wjn9tfaf8AiZ/8JB9q8nybWWf/AFX2VN2fK2/eGN2ecYIB9V/HL9qP4Y/s2nRB8RvE3/COnWvP+wYsLq687yfL8z/URPtx5sf3sZ3cZwcdV8Lfin4Y+NPgTTPGXg3U/wC2PDepeb9lvfs8sHmeXK8T/JKquMPG45UZxkcEGvzW/wCC5n/NE/8AuN/+2FeV/su/8FWv+GbPgV4Z+HA+F3/CR/2L9q/4mf8AwkH2XzvOupZ/9V9lfbjzdv3jnbnjOAAfP37BXxR8MfBf9rHwN4y8Zan/AGP4b0z7d9rvfs8s/l+ZYXESfJErOcvIg4U4zk8Amv3T+Bv7Ufwx/aS/tsfDnxN/wkR0XyPt/wDoF1a+T53meX/r4k3Z8qT7ucbecZGfwC/Zc+Bn/DSfx18M/Dj+2/8AhHP7a+1f8TP7J9q8nybWWf8A1W9N2fK2/eGN2ecYP7UfsM/sNf8ADF//AAmx/wCE2/4TH/hJfsX/ADCvsP2b7P8AaP8ApvLv3ef7Y2988AH5Wf8ABUf/AJPs+Jv/AHDP/TXaV79+wX+wZ8dfgr+1j4F8ZeM/A39jeG9N+3far3+17Cfy/MsLiJPkinZzl5EHCnGcngE19AftRf8ABKX/AIaU+Ovib4j/APC0f+Ec/tr7L/xLf+Ef+1eT5NrFB/rftSbs+Vu+6Mbsc4yfv/FAHwB/wVZ/Zd+J37Sn/Crv+FceGf8AhIv7F/tT7f8A6fa2vk+d9k8v/Xypuz5Un3c4284yM/AH/Drn9p3/AKJn/wCV/S//AJJr9/sCjFAHnP7QSk/BjxqQOBpsjH2AGSfyBr80K6Wy/wCC3Ol6rqENrrfwalg0Wc+VetB4gW6cRHhtsTWqK5wT8pdQemRXUjxp+yN4qkbU9M+Mr6Ha3X7xdNu7eVWts9UHmRBsAg9S31Iwa/TOEOIsJk0KtHFppSaaaV/I+bzbL6uLlGdLpocjovjW+0S1sreLmG2n+0hRNIMybWA/i+UfOQQoXcAM5wDXQab8ZdX0jxG+rWsaHckEXlXDGX5Y2B+83OW+bPb5zgcDGh/af7Kg/wCa92//AH6P/wAbr0zxj+z58JPh/wCHLvX/ABF8SLrSdHtNnn3lxCAke91Rc4XuzKPxr7CfE3DVRtzi3ff3X3ueOsszCOi/M8Yi+LWurEiSyedi/W/fc7hWYSeZt2AhQCxJIAx07jNXV+Nmtme6mmtrOeW6t1t52aLAYAyHO0EKM+awOBj9c3v7T/ZU/wCi92//AH6P/wAbr0zwf+z78I/iB4ctNf8ADvxIutW0e73+ReW8IKSbHZGxlezKw/CsnxDwu9eR/wDgL/zKWX5iuv4o+ZK+zf2HAT8P/FDY+X+0UXPv5anH6j86+f5NX/ZSjQs/x7j2d/KhJb8P3R/ka+gP2Rv2hPhx8Y7/AMVeDfhPZXR8K+DxZNLrVzGYzqc1x5xLhHAfA8jlnAJJwFCqM+NxVxVgc0wH1TCXbbTbatZI7ssyyvhq/tattj8p/wDgqIMft0fEv6aZ/wCmy0r9Vv8Ah6L+zH/0Uw/+CDVP/kavKP2of+CUv/DSfx08S/EY/FH/AIRz+2fsv/Es/wCEf+1eT5NrFB/rftSbs+Vu+6Mbsc4yfxY596/IT6w/pS+Bv7Uvww/aS/tv/hXPib/hIv7F8j7f/oF1a+T53meX/r4k3Z8qT7ucbecZGeW+KP7enwK+C/jrU/BvjLxwdG8Sab5X2qy/si/n8vzIklT54oGQ5SRDwxxnBwQRXxT/AMEM+nxsz/1BP/b+vlb/AIKjf8n1/EzHT/iWf+my0oA8A+Fvwt8T/Gnx3png3wbpn9s+JNS837LZefFB5nlxPK/zysqDCRueWGcYHJAr9KP2Fz/w7Z/4TY/tG/8AFux40+w/2D/zFPtn2T7R9p/48fP8vZ9rt/8AWbd2/wCXO1sfAH7Lnxz/AOGbPjr4Z+I/9if8JF/Yv2r/AIlv2v7L53nWssH+t2Ptx5u77pztxxnI+/8Aj/gtB/1R3/hW3/cc/tH+0P8AwG8ry/sH+3u83+Hb8wB9V/8AD0X9mP8A6KYf/BBqn/yNXgH7ev7efwK+NP7J3jrwb4M8cHWfEmpfYfstl/ZF/B5nl39vK/zywKgwkbnlhnGByQK/NX9qP4G/8M2fHXxN8OP7b/4SL+xfsv8AxMvsn2XzvOtYp/8AVb32483b945254zgff8A/wAOMv8Aqtn/AJan/wB20AeVf8Epf2ofhj+zYfiiPiP4m/4R061/Zf2D/QLq687yftfmf6iJ9uPNj+9jO7jODj5//b1+KPhj40ftY+OfGXg3U/7Y8N6n9h+yXv2eWDzPLsLeJ/klVXGHjccqM4yOCDX2r/w4z/6rZ/5an/3bR/w4x/6rZ/5an/3bQB+qlFFFABRRRQAUhGQQehpaQnAJPQUAeA/FH9gv4FfGjx1qfjLxl4HOs+JNS8r7Ve/2vfweZ5cSRJ8kU6oMJGg4UZxk5JJo+F37BfwK+C/jrTPGXg3wOdG8Sab5v2W9/te/n8vzInif5JZ2Q5SRxypxnIwQDR8Uf29PgV8F/HWp+DfGXjg6N4k03yvtVl/ZF/P5fmRJKnzxQMhykiHhjjODggivzV/Zb/Zc+J37F/x28M/GT4yeGf8AhDvhv4a+1f2rrX2+1vvs32i1ltYf3NrLLM+6a4iT5EON2ThQSAD1T/guZ8v/AApLHb+2/wD2wrrP2Cv2DPgV8af2TvAvjLxn4HOs+JNS+3far3+17+DzPLv7iJPkinVBhI0HCjOMnkk19p/A39qT4YftJDW/+Fc+Jv8AhIv7F8j7f/oF1a+T53meV/r4k3Z8qT7ucbecZGfzV/b0/YM+Ovxq/ax8deMvBngb+2fDepfYfst7/a9hB5nl2FvE/wAks6uMPG45UZxkcEGgD6B/ak/Zc+GP7F/wJ8TfGT4N+Gf+EO+JHhr7L/ZWtf2hdX32b7RdRWs37m6llhfdDcSp86HG7IwwBH5//wDD0b9p3/opn/lA0v8A+Rq/dT4pfFPwx8FvAmp+MvGWp/2P4b03yvtV79nln8vzJUiT5IlZzl5EHCnGcngE1+a37dA/4eTHwT/wzl/xcQ+C/t39vf8AML+x/a/s/wBm/wCP7yfM3/ZLj/V7tuz5sblyAfKn/D0b9p3/AKKZ/wCUDS//AJGr9/6+AP2W/wBqP4Y/sX/Anwz8G/jJ4m/4Q74keGvtX9q6L/Z91ffZvtF1LdQ/vrWKWF90NxE/yOcbsHDAgfmr+wV8UfDHwX/ax8DeMvGWp/2P4b0z7d9rvfs8s/l+ZYXESfJErOcvIg4U4zk8AmgD+imivyq/bo/42S/8IT/wzl/xcT/hCvt39vZ/4lf2P7X9n+zf8f3k+Zv+yXH+r3bdnzY3Ln81/il8LfE/wW8d6n4N8ZaZ/Y3iTTfK+1WXnxT+X5kSSp88TMhykiHhjjODyCKAPVf2Cvhd4Y+NP7WPgbwb4y0z+2PDep/bvtdl9olg8zy7C4lT54mVxh40PDDOMHgkV7//AMFWf2Xvhl+zWfhd/wAK58Nf8I9/bf8Aan2/N/c3XneT9k8v/XyPtx5sn3cZ3c5wMfAFeq/Az9lz4nftJDWz8OfDP/CRDRfI+3/6fa2vk+d5nl/6+VN2fKk+7nG3nGRkA/Sj9gz9gn4F/Gr9k/wN4z8ZeCW1fxJqf277VejV76DzPLv7iJPkimVBhI0HAGcZPJJr5y/ZU/aI+IP7Y/x78L/CD4va8viz4d+I/tX9qaOthbWJuPs9rNdQ/vraOOVNs0ETfK4ztwcgkH9OP2Cvhd4n+C/7J3gbwb4y0z+xvEmmfbvtdl9oin8vzL+4lT54mZDlJEPDHGcHkEV+QH/Drn9p3/omf/lf0v8A+SaAPVf+CrH7Lnwy/Zq/4Vd/wrnw0fD/APbX9qfb839zded5P2Tyv9dI+3HmyfdxndznAx93/wDBMPQLG9/Yc+Gs80IaR/7TyfXGp3Q/pXzL+wv/AMa2P+E2/wCGjv8Ai3X/AAmn2H+wf+Yp9s+yfaPtP/Hj5/l7PtVv/rNu7f8ALna2Pqv/AIei/sx/9FMP/gg1T/5GoAb/AMOtv2ZP+ibt/wCD7Uv/AJJr5W/boH/Dtg+CP+Gcv+Ldnxn9u/t0n/iafbPsn2f7N/x++d5ez7VP/q9u7f8ANnauPK/2W/2XPid+xf8AHbwz8ZPjJ4Z/4Q74b+GvtX9q619vtb77N9otZbWH9zayyzPumuIk+RDjdk4UEj1T9uj/AI2TDwT/AMM5f8XE/wCEL+3f29/zC/sf2v7P9m/4/fJ8zf8AZLj/AFe7bs+bG5cgHyr/AMPRv2nf+imf+UDS/wD5Gr9Vf+HXX7Mf/RMz/wCD/VP/AJJr8LPil8LfE/wW8d6n4N8ZaZ/Y3iTTfK+1WXnxT+X5kSSp88TMhykiHhjjODyCK/dP/gqP/wAmJ/E3/uGf+nS0oA+Vf25/+NbB8E/8M4/8W6/4TT7d/b3/ADFPtn2T7P8AZv8Aj+87y9n2u4/1e3dv+bO1ceq/st/sufDH9tD4E+GfjJ8ZPDP/AAmPxI8S/av7V1r+0Lqx+0/Z7qW1h/c2ssUKbYbeJPkQZ25OWJJ8p/4IZf8ANbP+4J/7f18rf8FR/wDk+z4m/wDcM/8ATXaUAfKteq/A39qP4nfs2jWx8OfE3/COjWvI+3/6Ba3XneT5nl/6+J9uPNk+7jO7nOBjlfhb8LfE/wAafHemeDfBumf2z4k1Lzfstl58UHmeXE8r/PKyoMJG55YZxgckCvfh/wAEuv2nCM/8Kz4/7D+mf/JNAHgPxS+KXif40+O9T8ZeMtT/ALZ8Sal5X2q98iKDzPLiSJPkiVUGEjQcKM4yeSTXv3/D0b9p3/opn/lA0v8A+Rq/QD9lv9qP4Y/sX/Anwz8G/jJ4m/4Q74keGvtX9q6L/Z91ffZvtF1LdQ/vrWKWF90NxE/yOcbsHDAgfKv7Lf7LnxO/Yv8Ajt4Z+Mnxk8M/8Id8N/DX2r+1da+32t99m+0WstrD+5tZZZn3TXESfIhxuycKCQAfVP8AwSk/aj+J37Sh+KP/AAsfxN/wkX9i/wBl/YP9AtbXyfO+1+b/AKiJN2fKj+9nG3jGTn9AK8p+Bn7Ufwx/aT/tsfDnxN/wkX9i+R9v/wBAurXyfO8zyv8AXxJuz5Un3c4284yM/iv/AMFR/wDk+z4m/wDcM/8ATXaUAfv9RRRQAUUUUAFIelLSHkUAfAH7UX/BKb/hpP46+JviP/wtH/hHP7a+zf8AEs/4R/7V5Pk2sUH+t+1Juz5W77oxuxzjJ8q/4bn/AOHk/wDxjj/whP8Awrr/AITT/mZf7V/tT7H9k/0//j28mHzN/wBk8v8A1i7d+7nbtPKft6ft5/HX4K/tY+OvBvgzxz/Y3hvTfsP2Wy/siwn8vzLC3lf55YGc5eRzyxxnA4AFfAXwt+KXif4LeO9M8ZeDdT/sbxJpvm/Zb3yIp/L8yJ4n+SVWQ5SRxypxnI5ANAH7pfsM/sNf8MYf8Jt/xW3/AAmP/CS/Yv8AmE/Yfs32f7R/02l37vtHtjb3zx5V+1F/wVa/4Zr+Ovib4cf8Ku/4SP8AsX7L/wATL/hIPsvnedaxT/6r7K+3Hm7fvHO3PGcA/wCCUv7UXxO/aTHxRHxG8Tf8JENF/sv7B/oFra+T532vzP8AURJuz5Uf3s428Yyc/AP/AAVH/wCT7Pib/wBwz/012lAH7UftSfAz/hpP4FeJvhz/AG3/AMI7/bX2X/iZ/ZPtXk+TdRT/AOq3puz5W37wxuzzjB+AOP8Agi//ANVi/wCFk/8AcD/s7+z/APwJ87zPt/8AsbfK/i3fL9q/t6/FHxP8F/2TvHPjLwbqf9jeJNM+w/ZL37PFP5fmX9vE/wAkqshykjjlTjORyAa+Kv2Fx/w8m/4TYftG/wDFxP8AhC/sP9g/8wv7H9r+0faf+PHyPM3/AGS3/wBZu27PlxubIB8A/tR/HP8A4aT+Ovib4j/2IfDv9tfZf+JZ9r+1eT5NrFB/rdibs+Vu+6Mbsc4yT9lz4Gf8NJ/HXwz8OP7b/wCEc/tr7V/xM/sn2ryfJtZZ/wDVb03Z8rb94Y3Z5xg/tT/w66/Zj/6Jmf8Awf6p/wDJNeVftSfsufDH9i/4E+JvjJ8G/DP/AAh3xI8NfZf7K1r+0Lq++zfaLqK1m/c3UssL7obiVPnQ43ZGGAIAPU/2Gf2GR+xf/wAJt/xW3/CY/wDCS/Yv+YV9h+z/AGf7R/03l37vtHtjb3zx+Vn/AAVG/wCT6/ib/wBwz/02WlB/4Ki/tOEY/wCFmcf9gDTP/kavAfil8UvE/wAafHep+MvGWp/2z4k1LyvtV75EUHmeXEkSfJEqoMJGg4UZxk8kmgD7U/ai/wCCUn/DNfwK8TfEf/haP/CR/wBi/Zf+JZ/wj/2XzvOuooP9b9qfbjzd33TnbjjOR5V+w1+3L/wxf/wm3/FE/wDCY/8ACS/Yv+Yr9h+zfZ/tH/TCXfu+0e2NvfPH7p/FL4WeGPjT4E1Pwb4y0z+2PDepeV9qsvtEsHmeXKkqfPEyuMPGh4YZxg8EivAf+HXf7Mmc/wDCtDnrn+39U/8AkmgD1P8AZb+Of/DSfwK8M/Eb+xP+Ed/tr7V/xLPtf2ryfJupYP8AW7E3Z8rd90Y3Y5xk/Kv7Lv8AwVa/4aT+Ovhn4cf8Ku/4Rz+2vtX/ABMv+Eg+1eT5NrLP/qvsqbs+Vt+8Mbs84wftX4W/Czwx8FvAmmeDfBumf2P4b03zfstl9oln8vzJXlf55WZzl5HPLHGcDgAV/Nb8Lfil4n+C3jvTPGXg3U/7G8Sab5v2W98iKfy/MieJ/klVkOUkccqcZyOQDQB+lH/Bcvr8E8c/8hv/ANsK8r/Zd/4JTf8ADSfwK8M/Ef8A4Wj/AMI5/bX2r/iWf8I/9q8nybqWD/W/ak3Z8rd90Y3Y5xk+qfsL/wDGyYeNv+Gjf+Lif8IX9h/sH/mF/Y/tf2j7T/x5eT5m/wCyW/8ArN23Z8uNzZ8r/ak/aj+J37F/x28TfBv4N+Jv+EO+G/hr7L/ZWi/YLW++zfaLWK6m/fXUUsz7priV/nc43YGFAAAP1T/aj+Bn/DSXwK8TfDn+2/8AhHf7a+y/8TP7J9q8nybqKf8A1W9N2fK2/eGN2ecYPlP7DX7DX/DF/wDwmxPjb/hMf+El+xf8wn7D9n+z/aP+m8u/d9o9sbe+eOs/b1+KPif4L/sneOfGXg3U/wCxvEmmfYfsl79nin8vzL+3if5JVZDlJHHKnGcjkA1+QH/D0X9pwcf8LM4/7AGl/wDyNQAv/BUYf8Z1/EzH/UM/9NlpXq37UX/BVr/hpT4FeJvhwfhd/wAI5/bX2X/iZf8ACQfavJ8m6in/ANV9lTdnytv3hjdnnGD9U/st/sufDH9tD4E+GfjJ8ZPDP/CY/EjxL9q/tXWv7QurH7T9nupbWH9zayxQptht4k+RBnbk5Ykn1X/h11+zH/0TM/8Ag/1T/wCSaAPlT/ghnx/wuz/uCf8At/Xqv7UX/BKX/hpT46+JviP/AMLR/wCEc/tr7L/xLf8AhH/tXk+TaxQf637Um7PlbvujG7HOMn6q+Bv7Lfww/Zs/tv8A4Vz4Z/4R3+2vI+3/AOn3V153k+Z5X+vlfbjzZPu4zu5zgY/NX9vT9vP46/BX9rHx14N8GeOf7G8N6b9h+y2X9kWE/l+ZYW8r/PLAznLyOeWOM4HAAoA+K/2XPjn/AMM2fHXwz8R/7E/4SL+xftX/ABLftf2XzvOtZYP9bsfbjzd33TnbjjOR9/8A/D8wHj/hSf8A5df/ANxV+VlAOCCOooA/VT/hhj/h5P8A8ZG/8Jt/wrr/AITT/mWv7K/tT7H9k/0D/j586HzN/wBk8z/Vrt37edu4/f37UfwM/wCGk/gV4m+HP9tjw7/bX2X/AImf2T7V5Pk3UU/+q3puz5W37wxuzzjB/Cz4Xft6fHX4LeBdM8G+DPHA0bw3pvm/ZbL+yLCfy/MleV/nlgZzl5HPLHGcDAAFdV/w9G/ad/6KZ/5QNL/+RqAP1U/Ya/Ya/wCGL/8AhNifG3/CY/8ACS/Yv+YV9h+zfZ/tH/TeXfu+0e2NvfPH5Wf8FRuf26/iZ/3DP/TZaUn/AA9G/ad/6KZ/5QNL/wDkav0A/Zb/AGXPhj+2h8CfDPxk+Mnhn/hMfiR4l+1f2rrX9oXVj9p+z3UtrD+5tZYoU2w28SfIgztycsSSAff9FFFABRRRQAUhOASegpaQ9KAPAfij+3p8Cvgv461Pwb4y8cHRvEmm+V9qsv7Iv5/L8yJJU+eKBkOUkQ8McZwcEEVyn/D0X9mP/oph/wDBBqn/AMjV+Vf/AAVG4/br+Jn/AHDP/TZaV9Vf8OMv+q2f+Wp/920AfVX/AA9F/Zj/AOimH/wQap/8jUf8PRf2Y/8Aoph/8EGqf/I1fKv/AA4z/wCq2/8Alqf/AHbR/wAOMv8Aqtn/AJan/wB20AfVX/D0X9mP/oph/wDBBqn/AMjV6p8Df2pPhh+0n/bf/CufE3/CRf2L5H2//QLq18nzvM8r/XxJuz5Un3c4284yM/lb+1F/wSl/4Zr+BXib4jn4o/8ACR/2L9l/4lv/AAj/ANl87zrqKD/W/an2483d905244zkeqf8EMuT8bP+4J/7f0Acn+3p+wZ8dfjV+1j468ZeDPA39s+G9S+w/Zb3+17CDzPLsLeJ/klnVxh43HKjOMjgg18rfsFfFHwx8F/2sfA3jLxlqf8AY/hvTPt32u9+zyz+X5lhcRJ8kSs5y8iDhTjOTwCa/ooxX5Wf8OMsf81s/wDLU/8Au2gD7++Bv7Ufwx/aS/tsfDnxN/wkR0XyPt/+gXVr5PneZ5f+viTdnypPu5xt5xkZ/NX9vT9gz46/Gr9rHx14y8GeBv7Z8N6l9h+y3v8Aa9hB5nl2FvE/ySzq4w8bjlRnGRwQa6z/AJQv/wDVYv8AhZP/AHA/7O/s/wD8CfN8z7f/ALG3yv4t3yn/AA/N/wCqJ/8Al1//AHFQB8q/8EuP+T7Phl/3E/8A013dfv7nC5PQV8Afsu/8Epf+Ga/jr4Z+I/8AwtH/AISP+xftX/Et/wCEf+y+d51rLB/rftT7cebu+6c7ccZyPVf25v25/wDhi8eCf+KJ/wCEx/4SX7b/AMxX7D9m+z/Z/wDphLv3ef7Y2988AHWfFH9vT4FfBfx1qfg3xl44OjeJNN8r7VZf2Rfz+X5kSSp88UDIcpIh4Y4zg4IIrlP+Co//ACYn8Tf+4Z/6dLSvxW/aj+Of/DSfx18TfEcaL/wjv9tfZf8AiWfa/tXk+TaxQf63Ym7PlbvujG7HOMn9/v2o/gZ/w0n8CvE3w4/tv/hHf7a+y/8AEy+yfavJ8m6in/1W9N2fK2/eGN2ecYIB+Vf/AASk/ai+GP7Nh+KH/CxvE3/COnWv7L+wYsLq687yftfmf6iJ9uPNj+9jO7jODj9fvhb8U/DHxp8CaZ4y8G6n/bHhvUvN+y3v2eWDzPLleJ/klVXGHjccqM4yOCDX5q/8OM8f81sx/wByp/8Adtff/wCy58Df+GbPgV4Z+HH9t/8ACRf2L9q/4mX2T7L53nXUs/8Aqt77cebt+8c7c8ZwAD8Vv+HXP7Tv/RM//K/pf/yTR/w65/ad/wCiZ/8Alf0v/wCSa+q/+H5v/VE//Lr/APuKvqn9hn9ub/htH/hNv+KJ/wCEO/4Rr7F/zFft32j7R9o/6YRbNv2f3zu7Y5APyr/4dc/tO/8ARM//ACv6X/8AJNfr/wDt6/C7xP8AGj9k7xz4N8G6Z/bPiTU/sP2Sy+0RQeZ5d/byv88rKgwkbnlhnGByQK+f/wBqL/gq1/wzZ8dfE3w4/wCFXf8ACR/2L9l/4mX/AAkH2XzvOtYp/wDVfZX2483b945254zgfVX7Ufxz/wCGbfgV4m+I39if8JF/Yv2X/iWfa/svneddRQf63Y+3Hm7vunO3HGcgA+Vf+CUv7LvxO/ZsHxRPxG8M/wDCOjWv7L+wf6fa3XneT9r8z/USvtx5sf3sZ3cZwcfAP/BUf/k+z4m/9wz/ANNdpX6p/sM/ty/8Nof8Jt/xRP8Awhv/AAjX2L/mLfbvtP2j7R/0wi2bfI987u2Ofys/4Kj/APJ9nxN/7hn/AKa7SgD90/il8U/DHwW8Can4y8Zan/Y/hvTfK+1Xv2eWfy/MlSJPkiVnOXkQcKcZyeATXKfA39qP4Y/tJHWx8OfE3/CRHRfJ+35sLq18nzvM8v8A18Sbs+VJ93ONvOMjJ+1H8Df+Gk/gV4m+HH9t/wDCO/219l/4mX2T7V5Pk3UU/wDqt6bs+Vt+8Mbs84wfKv2Gf2Gf+GL/APhNv+K2/wCEx/4SX7F/zCvsP2b7P9o/6by7932j2xt754APys/4Kj/8n2fE3/uGf+mu0r90/il8U/DHwW8Can4y8Zan/Y/hvTfK+1Xv2eWfy/MlSJPkiVnOXkQcKcZyeATX4V/8FRv+T6/ib/3DP/TZaV+qv/BUY/8AGCnxM/7hn/pztKAPgD/gq3+1F8Mf2kz8L/8AhXPib/hIv7F/tT7fmwurXyfO+yeX/r4k3Z8qT7ucbecZGfgCvqr9hr9hn/htD/hNs+Nv+EO/4Rr7F/zCvt32n7R9o/6bRbNv2f3zu7Y5+qf+HGX/AFWz/wAtT/7toA/VWiiigAooooAKQ9KWkPSgD8Av+Co//J9nxN/7hn/prtK/X79vX4o+J/gv+yd458ZeDdT/ALG8SaZ9h+yXv2eKfy/Mv7eJ/klVkOUkccqcZyOQDX5A/wDBUf8A5Ps+Jv8A3DP/AE12lfqp/wAFR/8AkxP4m/8AcM/9OlpQB+VX/D0X9pwcD4mcf9gDS/8A5Go/4ejftO/9FM/8oGl//I1fK1FAH7/f8FR/+TE/ib/3DP8A06WlfKv/AAQx6/Gz/uCf+39fVX/BUf8A5MT+Jv8A3DP/AE6WlfKn/BDLj/hdn/cE/wDb+gD9Va+f/wBvX4o+J/gv+yd458ZeDdT/ALG8SaZ9h+yXv2eKfy/Mv7eJ/klVkOUkccqcZyOQDX5//t6fsGfHX41ftY+OvGXgzwN/bPhvUvsP2W9/tewg8zy7C3if5JZ1cYeNxyozjI4INfa3/BUf/kxP4m/9wz/06WlAH4rfHL9qT4nftJf2IPiN4m/4SIaL5/2D/QLW18nzvL8z/URJuz5Uf3s428Yyc/pV+wV+wZ8CvjT+yd4F8ZeM/A51nxJqX277Ve/2vfweZ5d/cRJ8kU6oMJGg4UZxk8kmvzV+Bv7LnxO/aSGtn4c+Gf8AhIhovkfb839ra+T53meX/r5U3Z8qT7ucbecZGeV+KXwt8T/Bbx3qfg3xlpn9jeJNN8r7VZefFP5fmRJKnzxMyHKSIeGOM4PIIoA+/f2C/wBvP46/Gr9rHwL4N8Z+Of7Z8N6l9u+1WX9kWEHmeXYXEqfPFArjDxoeGGcYPBIrq/8AgubwPgn/ANxv/wBsK+1vhd+3p8CvjR460zwb4N8cHWfEmpeb9lsv7Iv4PM8uJ5X+eWBUGEjc8sM4wMkgV79uG3d2xmgD+Viv6qK8A+KP7enwK+C/jrU/BvjLxwdG8Sab5X2qy/si/n8vzIklT54oGQ5SRDwxxnBwQRX5/fsF/sGfHX4K/tY+BfGXjPwN/Y3hvTft32q9/tewn8vzLC4iT5Ip2c5eRBwpxnJ4BNAH0B/wVb/aj+J37NZ+F3/CuPE3/CO/21/an2//AEC1uvO8n7J5X+vifbjzZPu4zu5zgY+AP+Ho37Tv/RTP/KBpf/yNX7/Z+XNfkB+3p+wZ8dfjV+1j468ZeDPA39s+G9S+w/Zb3+17CDzPLsLeJ/klnVxh43HKjOMjgg0Afa3/AA66/Zj/AOiZn/wf6p/8k18qft0D/h2z/wAISP2cv+Ldjxp9u/t7/mKfbPsn2f7N/wAf3n+Xs+13H+r27t/zZ2rjlP2C/wBgz46/BX9rHwL4y8Z+Bv7G8N6b9u+1Xv8Aa9hP5fmWFxEnyRTs5y8iDhTjOTwCa+gP+CrP7LvxO/aU/wCFXf8ACuPDP/CRf2L/AGp9v/0+1tfJ877J5f8Ar5U3Z8qT7ucbecZGQD8gvil8UvE/xp8d6n4y8Zan/bPiTUvK+1XvkRQeZ5cSRJ8kSqgwkaDhRnGTySa+1P2W/wBqP4nftofHbwz8G/jJ4m/4TH4b+JftX9q6L9gtbH7T9ntZbqH99axRTJtmt4n+Rxnbg5UkH6q/Zb/aj+GP7F/wJ8M/Bv4yeJv+EO+JHhr7V/aui/2fdX32b7RdS3UP761ilhfdDcRP8jnG7BwwIHwB/wAEuP8Ak+z4Zf8AcT/9Nd3QB+1HwM/Zc+GP7Nn9tn4c+Gf+Ed/tryPt/wDp91ded5PmeV/r5X2482T7uM7uc4GPxX/4Kj/8n2fE3/uGf+mu0r9qPjn+1H8Mf2bP7EHxG8Tf8I7/AG15/wBg/wBAurrzvJ8vzf8AURPtx5sf3sZ3cZwcflZ+1J+y58Tv20Pjt4m+Mnwb8M/8Jj8N/Ev2X+yta+32tj9p+z2sVrN+5upYpk2zW8qfOgztyMqQSAeU/wDD0b9p3/opn/lA0v8A+RqD/wAFRf2nCMH4mZH/AGANL/8Akavf/wBgv9gz46/BX9rHwL4y8Z+Bv7G8N6b9u+1Xv9r2E/l+ZYXESfJFOznLyIOFOM5PAJr9f+q0AfzB/FL4peJ/jT471Pxl4y1P+2fEmpeV9qvfIig8zy4kiT5IlVBhI0HCjOMnkk19qfst/tR/E79tD47eGfg38ZPE3/CY/DfxL9q/tXRfsFrY/afs9rLdQ/vrWKKZNs1vE/yOM7cHKkg+Vf8ABUf/AJPs+Jv/AHDP/TXaV+qn/BUf/kxP4m/9wz/06WlAHyp+3P8A8a2R4J/4Zy/4t3/wmn27+3v+Yp9s+yfZ/s3/AB/ed5ez7Xcf6vbu3/NnauPtX9gr4o+J/jR+yd4G8ZeMtT/tnxJqf277Xe/Z4oPM8u/uIk+SJVQYSNBwozjJ5JNfhZ8Df2XPid+0kNbPw58M/wDCRDRfI+35v7W18nzvM8v/AF8qbs+VJ93ONvOMjPK/FL4W+J/gt471Pwb4y0z+xvEmm+V9qsvPin8vzIklT54mZDlJEPDHGcHkEUAf0+0UUUAFFFFABSHpS0h6UAfgF/wVH/5Ps+Jv/cM/9NdpX7UftR/A3/hpP4FeJvhx/bf/AAjv9tfZf+Jl9k+1eT5N1FP/AKrem7PlbfvDG7POMH8V/wDgqP8A8n2fE3/uGf8AprtKT/h6N+07/wBFM/8AKBpf/wAjUAfVX/DjL/qtn/lqf/dtH/DjL/qtn/lqf/dtfKv/AA9G/ad/6KZ/5QNL/wDkaj/h6N+07/0Uz/ygaX/8jUAfqr/wVG5/YU+Jn/cM/wDTnaV8qf8ABDLr8bP+4J/7f18V/FH9vT46/GnwLqfg3xn44Gs+G9S8r7VZf2RYQeZ5cqSp88UCuMPGh4YZxg5BIr7V/wCCGRyfjYT/ANQT/wBv6AP1TxX4r/tRf8FWv+GlPgV4m+HB+F3/AAjn9tfZf+Jl/wAJB9q8nybqKf8A1X2VN2fK2/eGN2ecYP7U1/KvQB9VfsM/tzD9i/8A4TX/AIon/hMf+El+xf8AMV+w/Zvs/wBo/wCmEu/d5/tjb3zx5V+1H8cv+Gk/jr4m+I/9if8ACO/219l/4lv2v7V5Pk2sUH+t2Juz5W77oxuxzjJ8qBwa/X/9gr9gz4FfGn9k7wL4y8Z+BzrPiTUvt32q9/te/g8zy7+4iT5Ip1QYSNBwozjJ5JNAHU/su/8ABKb/AIZs+Ovhn4j/APC0f+Ej/sX7V/xLP+Ef+y+d51rLB/rftT7cebu+6c7ccZyPv7I21+QP7Bf7efx1+NX7WPgXwb4z8c/2z4b1L7d9qsv7IsIPM8uwuJU+eKBXGHjQ8MM4weCRX0B/wVZ/ai+J37Nf/Crv+FceJv8AhHf7a/tT7f8A6Ba3XneT9k8v/XxPtx5sn3cZ3c5wMAHwD/wVG/5Pr+JmOn/Es/8ATZaV9U/8Pzf+qJ/+XX/9xV6t+y3+y58Mf20PgT4Z+Mnxk8M/8Jj8SPEv2r+1da/tC6sftP2e6ltYf3NrLFCm2G3iT5EGduTliSfzV/YK+F3hj40ftY+BvBvjLTP7Y8N6n9u+12X2iWDzPLsLiVPniZXGHjQ8MM4weCRQB+v37DP7c3/DaP8Awmw/4Qn/AIQ7/hG/sX/MW+3faftH2j/phFs2/Z/fO7tjnyr9qL/gq1/wzX8dfE3w4/4Vd/wkf9i/Zf8AiZf8JB9l87zrWKf/AFX2V9uPN2/eOdueM4H1V8Df2XPhj+zb/bZ+HPhn/hHTrXkfb/8AT7q687yfM8v/AF8r7cebJ93Gd3OcDH4r/wDBUf8A5Ps+Jv8A3DP/AE12lAH7+8V8qftzftyj9jD/AIQn/iif+Ex/4SX7d/zFvsP2b7P9n/6Yy7932j2xt7546z9vX4o+J/gv+yd458ZeDdT/ALG8SaZ9h+yXv2eKfy/Mv7eJ/klVkOUkccqcZyOQDXxV+wv/AMbJj41/4aN/4uJ/whf2H+wcf8Sv7H9r+0faf+PHyPM3/ZLf/Wbtuz5cbmyAL/wwx/w8n/4yO/4Tb/hXX/Caf8y1/ZX9qfY/sn+g/wDHz50Pmb/snmf6tdu/bzt3H5V/4Jcf8n2fDL/uJ/8Apru6/dP4W/Czwx8FvAmmeDfBumf2P4b03zfstl9oln8vzJXlf55WZzl5HPLHGcDgAV+Fn/BLj/k+z4Zf9xP/ANNd3QB9Vf8ABczr8E8f9Rv/ANsK8q/Zd/4KtD9mv4FeGfhx/wAKu/4SP+xftP8AxM/+Eg+y+d511LP/AKr7K+3Hm7fvHO3PGcD9U/jl+y58Mf2kv7EPxG8M/wDCRHRfP+wf6fdWvk+d5fmf6iVN2fKj+9nG3jGTn8LP29fhd4Y+C/7WPjnwb4N0z+x/DemfYfsll9oln8vzLC3lf55WZzl5HPLHGcDgAUAf0UcUZGMV+AP/AA9G/ad/6KZ/5QNL/wDkavv/AP4JS/tR/E79pT/haP8AwsfxN/wkX9i/2X9g/wBAtbXyfO+1+b/qIk3Z8qP72cbeMZOQD4B/4Kj/APJ9nxN/7hn/AKa7Svqr/huf/h5P/wAY4/8ACE/8K6/4TT/mZf7V/tT7H9k/0/8A49vJh8zf9k8v/WLt37udu0/Kv/BUf/k+z4m/9wz/ANNdpX6//C79gv4FfBfx1pnjLwb4HOjeJNN837Le/wBr38/l+ZE8T/JLOyHKSOOVOM5GCAaAOS/YZ/YZH7F//Cbf8Vt/wmP/AAkv2L/mE/Yfs/2f7R/02l37vP8AbG3vnjyv9qL/AIJS/wDDSfx18TfEf/haP/COf219l/4lv/CP/avJ8m1ig/1v2pN2fK3fdGN2OcZJ/wAFWv2ovid+zV/wq4fDjxN/wjg1r+1Pt/8AoFrded5P2Tyv9fE+3HmyfdxndznAx8Af8PRv2nf+imf+UDS//kagD9/6KKKACiiigAooooAKKKKACiiigAooooAKKKKACiiigAooooAKKKKACiiigAooooAKKKKACiiigAooooAKKKKACiiigAooooAKKKKACiiigAooooAKKKKACiiigAooooAKKKKACiiigAooooAKKKKACiiigAooooAKKKKACiiigAooooAKKKKACiiigAooooA//9k=;" vertex="1" parent="1">
          <mxGeometry x="192" y="219" width="77" height="77" as="geometry" />
        </mxCell>
      </root>
    </mxGraphModel>
  </diagram>
</mxfile>
